<?xml version="1.0" encoding="iso-8859-1"?>
<!-- Generator: Adobe Illustrator 19.0.0, SVG Export Plug-In . SVG Version: 6.00 Build 0)  -->
<svg version="1.1" id="Capa_1" xmlns="http://www.w3.org/2000/svg" xmlns:xlink="http://www.w3.org/1999/xlink" x="0px" y="0px"
	 viewBox="0 0 512 512" style="enable-background:new 0 0 512 512;" xml:space="preserve">
<g>
	<g>
		<path d="M507.25,69.338c-2.912-1.436-6.387-1.097-8.967,0.875L359.558,176.287c-6.836,5.277-8.66,14.824-4.253,22.25
			l-21.889,5.967l-31.942-13.6c-0.557-0.239-1.138-0.418-1.733-0.533c-30.644-5.855-46.532-0.208-54.741,6.083H157.79
			c2.99-7.159,0.792-15.434-5.356-20.167L13.717,70.212c-2.578-1.974-6.053-2.314-8.964-0.876C1.841,70.774-0.001,73.74,0,76.987
			v204.8c-0.001,3.063,1.64,5.891,4.3,7.408l52.817,30.175c2.567,1.472,5.475,2.245,8.433,2.242
			c4.341-0.012,8.515-1.672,11.678-4.644l9.899,7.909c-5.759,7.354-7.017,17.277-3.276,25.836c3.742,8.559,11.88,14.374,21.19,15.14
			c0.725,0.067,1.442,0.092,2.158,0.092c1.312-0.012,2.622-0.125,3.917-0.339c0.533,6.091,2.937,11.868,6.883,16.539l0.009,0.009
			c5.107,6.06,12.425,9.826,20.325,10.458c0.842,0.075,1.683,0.108,2.525,0.108c0.129,0,0.253-0.031,0.381-0.033
			c0.238,5.547,2.304,10.859,5.877,15.108c4.86,5.729,11.996,9.028,19.508,9.017c2.986-0.005,5.947-0.542,8.744-1.585
			c2.848,10.177,11.745,17.496,22.281,18.327c0.725,0.067,1.442,0.092,2.158,0.092c5.871,0.035,11.565-2.014,16.067-5.783
			l13.382-10.339l31.51,21.056c4.877,3.24,10.603,4.968,16.458,4.966c2.009,0.001,4.013-0.197,5.983-0.592
			c12.837-2.556,22.49-13.21,23.774-26.235c8.541,2.606,17.804,1.193,25.179-3.842c7.375-5.035,12.065-13.147,12.749-22.051
			c9.884,3.266,20.756,1.12,28.657-5.658c7.901-6.778,11.676-17.197,9.952-27.462c8.551-0.978,16.243-5.654,21.048-12.794
			c4.763-7.179,6.202-16.064,3.946-24.379l16.827-16.821l6.869,10.3c4.981,7.46,14.882,9.799,22.675,5.358l52.817-30.175
			c2.66-1.518,4.301-4.346,4.3-7.408v-204.8C512,73.742,510.159,70.777,507.25,69.338z M17.067,276.837V94.254l95.271,72.85
			L34.194,286.622L17.067,276.837z M65.583,304.554l-16.547-9.453l76.893-117.603l16.138,12.339L65.583,304.554z M112.533,346.904
			c-1.672,1.46-3.874,2.163-6.083,1.942c-3.296-0.278-6.118-2.473-7.2-5.599c-1.082-3.126-0.219-6.595,2.2-8.851l21.342-16.5
			c1.501-1.279,3.411-1.98,5.383-1.975c0.233,0,0.466,0.008,0.7,0.025c3.297,0.279,6.121,2.476,7.202,5.603
			c1.082,3.128,0.218,6.599-2.202,8.855L112.533,346.904z M139.742,375.604c-5.093-0.421-9.449-3.83-11.081-8.673
			c-1.632-4.843-0.228-10.193,3.573-13.61l26.875-20.783c3.951-3.348,9.529-3.985,14.134-1.616c4.604,2.37,7.328,7.28,6.9,12.441
			c-0.243,3.159-1.667,6.111-3.988,8.269l-7.313,5.706l-19.774,15.283C146.485,374.826,143.125,375.901,139.742,375.604z
			 M183.325,388.829l-0.019,0.02l-11.389,8.888c-1.689,1.434-3.878,2.137-6.086,1.954s-4.252-1.237-5.681-2.929h0
			c-1.441-1.684-2.143-3.876-1.95-6.083c0.146-2.097,1.099-4.057,2.658-5.467l19.948-15.569l5.885-4.548
			c0.065-0.055,0.109-0.125,0.174-0.181l6.026-4.702c1.498-1.281,3.404-1.985,5.375-1.983c0.237-0.001,0.473,0.01,0.708,0.033
			c3.303,0.279,6.129,2.481,7.206,5.616c1.077,3.134,0.202,6.609-2.231,8.859l-19.961,15.579L183.325,388.829z M226.483,398.104
			l-21.342,16.5c-1.666,1.471-3.873,2.175-6.083,1.942c-3.294-0.278-6.115-2.471-7.197-5.594c-1.083-3.123-0.224-6.591,2.191-8.848
			l0.39-0.304l20.958-16.203c3.468-2.928,8.638-2.553,11.648,0.843C230.057,389.836,229.807,395.014,226.483,398.104z
			 M390.358,335.462c-3.905,5.781-11.702,7.406-17.592,3.667l-0.067-0.042l-56.042-38.733c-2.507-1.743-5.753-2.013-8.514-0.708
			c-2.76,1.304-4.613,3.985-4.858,7.028s1.155,5.985,3.671,7.714l54.231,37.49l0.027,0.027c4.3,2.854,6.454,8.02,5.453,13.083
			c-1.001,5.063-4.957,9.022-10.02,10.025c-3.28,0.682-6.696,0.028-9.492-1.817l-56.083-38.7c-3.88-2.669-9.188-1.692-11.863,2.183
			c-2.675,3.875-1.708,9.185,2.163,11.867l40.961,28.26l0.014,0.015c5.915,4.154,7.535,12.217,3.683,18.333
			c-3.846,5.83-11.665,7.483-17.542,3.708l-15.093-10.711l-0.007-0.005h-0.002l-15.381-10.917c-2.486-1.766-5.725-2.071-8.497-0.8
			c-2.772,1.27-4.656,3.923-4.942,6.958s1.069,5.993,3.555,7.759l15.822,11.225c0.763,0.617,1.487,1.279,2.17,1.983
			c4.827,4.577,5.356,12.083,1.219,17.291c-4.137,5.208-11.569,6.391-17.119,2.725l-28.107-18.784
			c4.771-7.367,5.376-16.682,1.599-24.604c-3.777-7.922-11.394-13.317-20.121-14.249c0.197-13.284-9.959-24.437-23.204-25.479
			c-1.095-0.065-2.194-0.056-3.288,0.027c-0.273-10.504-6.087-20.078-15.28-25.165s-20.393-4.928-29.438,0.419
			c-2.554-8.026-8.924-14.263-17.003-16.646c-8.078-2.384-16.813-0.605-23.316,4.749l-11.654,9.006l-13.29-10.619l59.674-89.504
			h74.902c-6.478,5.686-9.501,14.352-7.965,22.833c1.785,10.294,9.948,18.296,20.275,19.875c15.785,2.234,31.879-0.085,46.392-6.683
			l21.758,13.842c0.487,0.28,1.002,0.511,1.535,0.69l83.19,53.577c1.643,1.13,3.024,2.599,4.05,4.308
			c0.042,0.1,0.092,0.192,0.142,0.292C393.272,326.453,393,331.523,390.358,335.462z M399.091,305.823
			c-0.906-0.877-1.866-1.696-2.874-2.452l-84.392-54.358c-0.388-0.188-0.791-0.344-1.204-0.468l-25.104-15.966
			c-2.675-1.701-6.073-1.782-8.825-0.208c-12.271,6.369-26.2,8.821-39.908,7.025c-3.198-0.378-5.755-2.836-6.258-6.017
			c-0.63-3.331,0.994-6.682,4-8.25c6.391-3.329,12.396-7.35,17.908-11.991c0.591-0.498,1.076-1.11,1.425-1.8
			c0.27-0.337,0.571-0.646,0.9-0.925c2.5-2.142,12.809-8.633,40.883-3.442l33.817,14.4c1.762,0.766,3.734,0.901,5.583,0.383
			l30.159-8.224l50.484,75.704L399.091,305.823z M446.417,304.554l-76.492-114.708l16.147-12.348l76.892,117.603L446.417,304.554z
			 M494.933,276.837l-17.127,9.784l-78.143-119.516l95.27-72.852V276.837z"/>
	</g>
</g>
<g>
</g>
<g>
</g>
<g>
</g>
<g>
</g>
<g>
</g>
<g>
</g>
<g>
</g>
<g>
</g>
<g>
</g>
<g>
</g>
<g>
</g>
<g>
</g>
<g>
</g>
<g>
</g>
<g>
</g>
</svg>
