<svg id="Layer_1" enable-background="new 0 0 512.002 512.002" height="512" viewBox="0 0 512.002 512.002" width="512" xmlns="http://www.w3.org/2000/svg"><g clip-rule="evenodd" fill-rule="evenodd"><path d="m436.162 40h-30v-10c0-16.542-13.458-30-30-30h-.001c-16.542 0-30 13.458-30 30v10h-59.999v-10c0-16.542-13.458-30-30-30h-.001c-16.542 0-30 13.458-30 30v10h-59.999v-10c0-16.542-13.458-30-30-30h-.001c-16.542 0-30 13.458-30 30v10h-30c-16.718 0-30.321 13.458-30.321 30v412.002c0 16.542 13.603 30 30.322 30h360c16.542 0 30-13.458 30-30v-412.002c0-16.542-13.458-30-30-30zm-70-10c0-5.514 4.486-10 10-10s10 4.486 10 10v40c0 5.514-4.486 10-10 10s-10-4.486-10-10zm-120 0c0-5.514 4.486-10 10-10s10 4.486 10 10v40c0 5.514-4.486 10-10 10s-10-4.486-10-10zm-120 0c0-5.514 4.486-10 10-10s10 4.486 10 10v40c0 5.514-4.486 10-10 10s-10-4.486-10-10zm-50 30h30v10c0 16.542 13.458 30 30 30s30-13.458 30-30v-10h59.999v10c0 16.542 13.458 30 30 30s30-13.458 30-30v-10h59.999v10c0 16.542 13.458 30 30 30s30-13.458 30-30v-10h30c5.514 0 10 4.486 10 10v60.002h-380.32v-60.002c0-5.421 4.727-10 10.322-10zm360 432.002h-360c-5.595 0-10.322-4.58-10.322-10v-332h380.322v332c0 5.514-4.486 10-10 10z"/><path d="m289.496 273.004-21.253-43.402c-1.26-2.623-3.378-4.856-6.195-6.234-6.656-3.255-14.692-.499-17.947 6.158l-21.29 43.477-47.999 6.823.002.014c-2.844.403-5.581 1.715-7.739 3.933-5.173 5.319-5.056 13.826.263 18.999l34.791 33.704-8.341 47.744.021.004c-.496 2.829-.094 5.837 1.347 8.575 3.459 6.569 11.589 9.09 18.158 5.631l42.837-22.691 42.149 22.326c2.683 1.619 5.939 2.314 9.267 1.733 7.325-1.279 12.226-8.254 10.947-15.578l-8.341-47.743 34.345-33.271c2.306-2.042 3.926-4.881 4.394-8.17 1.046-7.354-4.067-14.164-11.421-15.211z"/></g></svg>