<svg height="512" viewBox="0 0 512 512" width="512" xmlns="http://www.w3.org/2000/svg"><g><path d="m256 304a8 8 0 0 0 8-8v-8a8 8 0 0 0 -16 0v8a8 8 0 0 0 8 8z"/><path d="m408 136h-32a8 8 0 0 0 -8 8v8h-16v-96a48.051 48.051 0 0 0 -48-48h-96a48.051 48.051 0 0 0 -48 48v96h-16v-8a8 8 0 0 0 -8-8h-32a8 8 0 0 0 -8 8v32a8 8 0 0 0 8 8h8v96a88.1 88.1 0 0 0 88 88h16v16a8 8 0 0 0 8 8h8v104a8 8 0 0 0 8 8h32a8 8 0 0 0 8-8v-104h8a8 8 0 0 0 8-8v-16h16a88.1 88.1 0 0 0 88-88v-96h8a8 8 0 0 0 8-8v-32a8 8 0 0 0 -8-8zm-232-40h32v16h-32zm0 64h32v16h-32zm0 64h32v16h-32zm0 32h40a8 8 0 0 0 8-8v-32a8 8 0 0 0 -8-8h-40v-16h40a8 8 0 0 0 8-8v-32a8 8 0 0 0 -8-8h-40v-16h40a8 8 0 0 0 8-8v-32a8 8 0 0 0 -8-8h-40v-24a32.036 32.036 0 0 1 32-32h40v240a8 8 0 0 0 16 0v-240h40a32.036 32.036 0 0 1 32 32v24h-40a8 8 0 0 0 -8 8v32a8 8 0 0 0 8 8h40v16h-40a8 8 0 0 0 -8 8v32a8 8 0 0 0 8 8h40v16h-40a8 8 0 0 0 -8 8v32a8 8 0 0 0 8 8h40v24a32.042 32.042 0 0 1 -32 32h-96a32.042 32.042 0 0 1 -32-32zm160-160v16h-32v-16zm0 64v16h-32v-16zm0 64v16h-32v-16zm-224-72h16v16h-16zm152 336h-16v-96h16zm16-112h-48v-8h48zm104-96a72.083 72.083 0 0 1 -72 72h-112a72.083 72.083 0 0 1 -72-72v-96h8a8 8 0 0 0 8-8v-8h16v112a48.051 48.051 0 0 0 48 48h96a48.051 48.051 0 0 0 48-48v-112h16v8a8 8 0 0 0 8 8h8zm16-112h-16v-16h16z"/></g></svg>